<svg xmlns="http://www.w3.org/2000/svg" viewBox="0 0 1200 630" role="img" aria-label="Configuration social card">
  <defs>
    <linearGradient id="bg" x1="0" x2="1" y1="0" y2="1">
      <stop offset="0" stop-color="#0b1115"/>
      <stop offset="0.48" stop-color="#111820"/>
      <stop offset="1" stop-color="#17130f"/>
    </linearGradient>
    <pattern id="grid" width="44" height="44" patternUnits="userSpaceOnUse">
      <path d="M44 0H0v44" fill="none" stroke="#24343b" stroke-opacity="0.55"/>
    </pattern>
  </defs>
  <rect width="1200" height="630" fill="url(#bg)"/>
  <rect width="1200" height="630" fill="url(#grid)" opacity="0.48"/>
  <path d="M64 476c162-72 310-74 444-6 142 72 300 70 474-8 62-28 112-45 154-51v155H64Z" fill="#f59e4c" opacity="0.12"/>
  <rect x="64" y="64" width="1072" height="502" rx="26" fill="#101820" fill-opacity="0.82" stroke="#2b424a" stroke-width="2"/>
  <rect x="90" y="90" width="1020" height="450" rx="18" fill="#0b1115" fill-opacity="0.44" stroke="#20343d"/>
  
  <g transform="translate(104 112) scale(3)">
    <rect width="32" height="32" rx="8" fill="#111827"/>
    <path d="M16 6.2 9.2 21.6h13.6L16 6.2Z" fill="#1f2a44"/>
    <path d="M16 6.2 9.2 21.6M16 6.2l6.8 15.4M9.2 21.6h13.6M16 14.4l-6.8 7.2M16 14.4l6.8 7.2" fill="none" stroke="#7dd3fc" stroke-linecap="round" stroke-linejoin="round" stroke-width="2"/>
    <circle cx="16" cy="6.2" r="3.1" fill="#f8c65c"/>
    <circle cx="16" cy="14.4" r="2.4" fill="#f8fafc"/>
    <circle cx="9.2" cy="21.6" r="3" fill="#34d399"/>
    <circle cx="22.8" cy="21.6" r="3" fill="#fb7185"/>
  </g>

  <text x="238" y="154" fill="#f59e4c" font-family="Inter, Arial, sans-serif" font-size="24" font-weight="850" letter-spacing="0">Settings</text>
  <text x="104" y="318" fill="#f4fbf8" font-family="Inter, Arial, sans-serif" font-size="78" font-weight="850" letter-spacing="0">Configuration</text>
  <text x="108" y="382" fill="#b7c9c5" font-family="Inter, Arial, sans-serif" font-size="32" font-weight="500" letter-spacing="0">Tune registry, prerelease, vulnerability, cache, and install behavior.</text>
  <g font-family="Inter, Arial, sans-serif" font-size="22" font-weight="800" letter-spacing="0">
    <rect x="104" y="446" width="154" height="48" rx="8" fill="#102f26" stroke="#5bd67b"/>
    <text x="128" y="478" fill="#5bd67b">up to date</text>
    <rect x="278" y="446" width="188" height="48" rx="8" fill="#302913" stroke="#f2c14e"/>
    <text x="302" y="478" fill="#f2c14e">update ready</text>
    <rect x="486" y="446" width="182" height="48" rx="8" fill="#321b1c" stroke="#f05d5e"/>
    <text x="510" y="478" fill="#f05d5e">security risk</text>
  </g>
  <text x="896" y="505" fill="#78908c" font-family="Inter, Arial, sans-serif" font-size="22" font-weight="700" letter-spacing="0">beacon.santi020k.com</text>
</svg>
