<svg xmlns="http://www.w3.org/2000/svg" viewBox="0 0 1600 900" role="img" aria-label="Dep Beacon VS Code preview">
  <defs>
    <linearGradient id="heroBg" x1="0" x2="1" y1="0" y2="1">
      <stop offset="0" stop-color="#0b1115"/>
      <stop offset="0.58" stop-color="#121820"/>
      <stop offset="1" stop-color="#17140f"/>
    </linearGradient>
    <pattern id="grid" width="56" height="56" patternUnits="userSpaceOnUse">
      <path d="M56 0H0v56" fill="none" stroke="#253942" stroke-opacity="0.48"/>
    </pattern>
  </defs>
  <rect width="1600" height="900" fill="url(#heroBg)"/>
  <rect width="1600" height="900" fill="url(#grid)" opacity="0.52"/>
  <path d="M0 686c216-95 413-99 591-10 190 94 402 89 636-14 145-64 269-90 373-78v316H0Z" fill="#7dd3fc" opacity="0.1"/>
  <rect x="126" y="96" width="1348" height="706" rx="18" fill="#101820" fill-opacity="0.92" stroke="#27414a" stroke-width="2"/>
  <rect x="126" y="96" width="1348" height="54" rx="18" fill="#142027"/>
  <circle cx="166" cy="123" r="8" fill="#f05d5e"/>
  <circle cx="192" cy="123" r="8" fill="#f2c14e"/>
  <circle cx="218" cy="123" r="8" fill="#5bd67b"/>
  <text x="264" y="132" fill="#b7c9c5" font-family="SFMono-Regular, Consolas, monospace" font-size="18">package.json</text>
  <rect x="166" y="190" width="606" height="570" rx="8" fill="#0b1115" stroke="#27414a"/>
  <rect x="812" y="190" width="622" height="570" rx="8" fill="#0f171d" stroke="#27414a"/>
  <g font-family="SFMono-Regular, Consolas, monospace" font-size="22">
    <text x="202" y="238" fill="#78908c">1</text>
    <text x="246" y="238" fill="#b7c9c5">{</text>
    <text x="202" y="280" fill="#78908c">2</text>
    <text x="246" y="280" fill="#75a7ff">"dependencies"</text>
    <text x="418" y="280" fill="#b7c9c5">: {</text>
    <text x="202" y="322" fill="#78908c">3</text>
    <text x="284" y="322" fill="#75a7ff">"astro"</text>
    <text x="386" y="322" fill="#b7c9c5">:</text>
    <text x="414" y="322" fill="#f2c14e">"^6.4.0"</text>
    <text x="202" y="364" fill="#78908c">4</text>
    <text x="284" y="364" fill="#75a7ff">"react"</text>
    <text x="386" y="364" fill="#b7c9c5">:</text>
    <text x="414" y="364" fill="#f2c14e">"catalog:react19"</text>
    <text x="202" y="406" fill="#78908c">5</text>
    <text x="284" y="406" fill="#75a7ff">"left-pad"</text>
    <text x="426" y="406" fill="#b7c9c5">:</text>
    <text x="454" y="406" fill="#f2c14e">"1.1.0"</text>
    <text x="202" y="448" fill="#78908c">6</text>
    <text x="246" y="448" fill="#b7c9c5">}</text>
    <text x="202" y="490" fill="#78908c">7</text>
    <text x="246" y="490" fill="#b7c9c5">}</text>
  </g>
  <g font-family="Inter, Arial, sans-serif" font-size="20" font-weight="800" letter-spacing="0">
    <rect x="838" y="238" width="224" height="44" rx="8" fill="#302913" stroke="#f2c14e"/>
    <text x="864" y="267" fill="#f2c14e">latest 7.0.0</text>
    <rect x="1078" y="238" width="178" height="44" rx="8" fill="#102f26" stroke="#5bd67b"/>
    <text x="1104" y="267" fill="#5bd67b">minor ^7</text>
    <rect x="838" y="304" width="338" height="44" rx="8" fill="#112a2a" stroke="#3dd6b3"/>
    <text x="864" y="333" fill="#3dd6b3">catalog resolves ^19.0.0</text>
    <rect x="838" y="370" width="356" height="44" rx="8" fill="#321b1c" stroke="#f05d5e"/>
    <text x="864" y="399" fill="#f05d5e">high vulnerability reported</text>
  </g>
  <g transform="translate(838 492)">
    <rect width="520" height="192" rx="10" fill="#101820" stroke="#27414a"/>
    <text x="28" y="46" fill="#f4fbf8" font-family="Inter, Arial, sans-serif" font-size="26" font-weight="850" letter-spacing="0">Signals that stay in context</text>
    <text x="28" y="88" fill="#b7c9c5" font-family="Inter, Arial, sans-serif" font-size="20" letter-spacing="0">Pick patch, minor, major, or latest.</text>
    <text x="28" y="124" fill="#b7c9c5" font-family="Inter, Arial, sans-serif" font-size="20" letter-spacing="0">Respect pnpm catalogs before editing.</text>
    <text x="28" y="160" fill="#b7c9c5" font-family="Inter, Arial, sans-serif" font-size="20" letter-spacing="0">Separate update noise from risk.</text>
  </g>
</svg>
