<svg xmlns="http://www.w3.org/2000/svg" viewBox="0 0 1200 630" role="img" aria-label="Dep Beacon social card">
  <rect width="1200" height="630" fill="#0b1115"/>
  <rect x="64" y="64" width="1072" height="502" rx="22" fill="#101820" stroke="#27414a" stroke-width="2"/>
  <g transform="translate(96 96) scale(3.875)">
    <rect width="32" height="32" rx="8" fill="#111827"/>
    <path d="M16 6.2 9.2 21.6h13.6L16 6.2Z" fill="#1f2a44"/>
    <path d="M16 6.2 9.2 21.6M16 6.2l6.8 15.4M9.2 21.6h13.6M16 14.4l-6.8 7.2M16 14.4l6.8 7.2" fill="none" stroke="#7dd3fc" stroke-linecap="round" stroke-linejoin="round" stroke-width="2"/>
    <circle cx="16" cy="6.2" r="3.1" fill="#f8c65c"/>
    <circle cx="16" cy="14.4" r="2.4" fill="#f8fafc"/>
    <circle cx="9.2" cy="21.6" r="3" fill="#34d399"/>
    <circle cx="22.8" cy="21.6" r="3" fill="#fb7185"/>
  </g>
  <text x="96" y="306" fill="#f4fbf8" font-family="Inter, Arial, sans-serif" font-size="88" font-weight="850">Dep Beacon</text>
  <text x="100" y="370" fill="#a8b3cf" font-family="Inter, Arial, sans-serif" font-size="34">Dependency signals for npm manifests</text>
  <g font-family="Inter, Arial, sans-serif" font-size="24" font-weight="750">
    <rect x="100" y="438" width="154" height="48" rx="8" fill="#102f26" stroke="#34d399"/>
    <text x="124" y="470" fill="#34d399">up to date</text>
    <rect x="274" y="438" width="188" height="48" rx="8" fill="#302913" stroke="#f2c14e"/>
    <text x="298" y="470" fill="#f2c14e">update ready</text>
    <rect x="482" y="438" width="170" height="48" rx="8" fill="#321b1c" stroke="#f05d5e"/>
    <text x="506" y="470" fill="#f05d5e">high risk</text>
  </g>
</svg>
